<?xml version="1.0" encoding="UTF-8" standalone="no"?>
<svg
   xmlns:dc="http://purl.org/dc/elements/1.1/"
   xmlns:cc="http://creativecommons.org/ns#"
   xmlns:rdf="http://www.w3.org/1999/02/22-rdf-syntax-ns#"
   xmlns:svg="http://www.w3.org/2000/svg"
   xmlns="http://www.w3.org/2000/svg"
   xmlns:sodipodi="http://sodipodi.sourceforge.net/DTD/sodipodi-0.dtd"
   xmlns:inkscape="http://www.inkscape.org/namespaces/inkscape"
   version="1.1"
   id="svg2"
   xml:space="preserve"
   width="435.78668"
   height="229.69333"
   viewBox="0 0 435.78668 229.69333"
   sodipodi:docname="cisco-seeklogo.com.eps"><metadata
     id="metadata8"><rdf:RDF><cc:Work
         rdf:about=""><dc:format>image/svg+xml</dc:format><dc:type
           rdf:resource="http://purl.org/dc/dcmitype/StillImage" /></cc:Work></rdf:RDF></metadata><defs
     id="defs6" /><sodipodi:namedview
     pagecolor="#ffffff"
     bordercolor="#666666"
     borderopacity="1"
     objecttolerance="10"
     gridtolerance="10"
     guidetolerance="10"
     inkscape:pageopacity="0"
     inkscape:pageshadow="2"
     inkscape:window-width="640"
     inkscape:window-height="480"
     id="namedview4" /><g
     id="g10"
     inkscape:groupmode="layer"
     inkscape:label="ink_ext_XXXXXX"
     transform="matrix(1.3333333,0,0,-1.3333333,0,229.69333)"><g
       id="g12"
       transform="scale(0.1)"><path
         d="M 1067.71,10.1016 H 924.383 V 578.012 H 1067.71 V 10.1016"
         style="fill:#c4122e;fill-opacity:1;fill-rule:nonzero;stroke:none"
         id="path14" /><path
         d="m 2223.29,415.289 c -5.86,3.012 -52.04,30.352 -120.59,30.352 -92.62,0 -156.9,-64.532 -156.9,-151.52 0,-84.402 61.49,-151.582 156.9,-151.582 67.4,0 114.3,26.762 120.59,30.109 V 20.2305 C 2205.28,15.1719 2156.37,0 2092.72,0 1931.49,0 1790,111.129 1790,294.121 c 0,169.629 128.03,293.981 302.72,293.981 67.19,0 117.01,-16.34 130.57,-20.372 V 415.289"
         style="fill:#c4122e;fill-opacity:1;fill-rule:nonzero;stroke:none"
         id="path16" /><path
         d="m 727.379,415.289 c -5.762,3.012 -51.836,30.352 -120.391,30.352 -92.828,0 -157.07,-64.532 -157.07,-151.52 0,-84.402 61.57,-151.582 157.07,-151.582 67.387,0 114.25,26.762 120.391,30.109 V 20.2305 C 709.59,15.1719 660.715,0 596.699,0 435.602,0 294.285,111.129 294.285,294.121 c 0,169.629 128.012,293.981 302.414,293.981 67.418,0 117.223,-16.34 130.68,-20.372 V 415.289"
         style="fill:#c4122e;fill-opacity:1;fill-rule:nonzero;stroke:none"
         id="path18" /><path
         d="m 2674.14,443.5 c -85.01,0 -148.16,-66.898 -148.16,-149.379 0,-82.66 63.15,-149.492 148.16,-149.492 84.93,0 148.25,66.832 148.25,149.492 0,82.481 -63.32,149.379 -148.25,149.379 M 2974.22,294.121 C 2974.22,131.66 2848.79,0 2674.14,0 2499.48,0 2374.2,131.66 2374.2,294.121 c 0,162.231 125.28,293.981 299.94,293.981 174.65,0 300.08,-131.75 300.08,-293.981"
         style="fill:#c4122e;fill-opacity:1;fill-rule:nonzero;stroke:none"
         id="path20" /><path
         d="m 1611.22,448.93 c -2.12,0.679 -62.49,17.34 -112.05,17.34 -57.44,0 -88.63,-19.239 -88.63,-46.559 0,-34.59 42.1,-46.609 65.7,-54.07 l 39.52,-12.59 c 93.03,-29.582 135.4,-93.289 135.4,-162.469 C 1651.16,47.9297 1525.72,0 1416.04,0 1339.77,0 1268.39,14.0195 1261.35,15.5117 V 146.211 c 12.63,-3.199 72.72,-21.152 135.35,-21.152 71.28,0 104.08,20.902 104.08,53.043 0,28.789 -28.37,45.41 -63.9,56.589 -8.71,2.891 -21.73,6.969 -30.62,9.86 -79.83,25.25 -146.35,72.148 -146.35,166.148 0,106.231 79.49,177.582 211.61,177.582 69.78,0 135.43,-16.929 139.7,-18.101 V 448.93"
         style="fill:#c4122e;fill-opacity:1;fill-rule:nonzero;stroke:none"
         id="path22" /><path
         d="m 142.301,1188.34 c 0,39.17 -31.934,70.92 -71.1408,70.92 C 32.0039,1259.26 0,1227.51 0,1188.34 v -149.05 c 0,-39.372 32.0039,-71.122 71.1602,-71.122 39.2068,0 71.1408,31.75 71.1408,71.122 v 149.05"
         style="fill:#15495d;fill-opacity:1;fill-rule:nonzero;stroke:none"
         id="path24" /><path
         d="m 533.125,1384.04 c 0,39.14 -31.949,70.94 -71.137,70.94 -39.199,0 -71.164,-31.8 -71.164,-70.94 v -344.75 c 0,-39.372 31.965,-71.122 71.164,-71.122 39.188,0 71.137,31.75 71.137,71.122 v 344.75"
         style="fill:#15495d;fill-opacity:1;fill-rule:nonzero;stroke:none"
         id="path26" /><path
         d="m 923.965,1651.77 c 0,39.13 -31.977,70.89 -71.168,70.89 -39.184,0 -71.16,-31.76 -71.16,-70.89 V 897.602 c 0,-39.344 31.976,-71.118 71.16,-71.118 39.191,0 71.168,31.774 71.168,71.118 v 754.168"
         style="fill:#15495d;fill-opacity:1;fill-rule:nonzero;stroke:none"
         id="path28" /><path
         d="m 1314.77,1384.04 c 0,39.14 -31.96,70.94 -71.16,70.94 -39.19,0 -71.14,-31.8 -71.14,-70.94 v -344.75 c 0,-39.372 31.95,-71.122 71.14,-71.122 39.2,0 71.16,31.75 71.16,71.122 v 344.75"
         style="fill:#15495d;fill-opacity:1;fill-rule:nonzero;stroke:none"
         id="path30" /><path
         d="m 1705.16,1188.34 c 0,39.17 -31.74,70.92 -70.73,70.92 -39.17,0 -71.13,-31.75 -71.13,-70.92 v -149.05 c 0,-39.372 31.96,-71.122 71.13,-71.122 38.99,0 70.73,31.75 70.73,71.122 v 149.05"
         style="fill:#15495d;fill-opacity:1;fill-rule:nonzero;stroke:none"
         id="path32" /><path
         d="m 2096.14,1384.04 c 0,39.14 -31.74,70.94 -70.92,70.94 -39.1,0 -70.92,-31.8 -70.92,-70.94 v -344.75 c 0,-39.372 31.82,-71.122 70.92,-71.122 39.18,0 70.92,31.75 70.92,71.122 v 344.75"
         style="fill:#15495d;fill-opacity:1;fill-rule:nonzero;stroke:none"
         id="path34" /><path
         d="m 2487.23,1651.77 c 0,39.13 -31.76,70.89 -70.92,70.89 -39.22,0 -70.93,-31.76 -70.93,-70.89 V 897.602 c 0,-39.344 31.71,-71.118 70.93,-71.118 39.16,0 70.92,31.774 70.92,71.118 v 754.168"
         style="fill:#15495d;fill-opacity:1;fill-rule:nonzero;stroke:none"
         id="path36" /><path
         d="m 2878.25,1384.04 c 0,39.14 -31.74,70.94 -71.82,70.94 -39.2,0 -70.94,-31.8 -70.94,-70.94 v -344.75 c 0,-39.372 31.74,-71.122 70.94,-71.122 40.08,0 71.82,31.75 71.82,71.122 v 344.75"
         style="fill:#15495d;fill-opacity:1;fill-rule:nonzero;stroke:none"
         id="path38" /><path
         d="m 3268.44,1188.34 c 0,39.17 -31.83,70.92 -70.92,70.92 -39.2,0 -71.01,-31.75 -71.01,-70.92 v -149.05 c 0,-39.372 31.81,-71.122 71.01,-71.122 39.09,0 70.92,31.75 70.92,71.122 v 149.05"
         style="fill:#15495d;fill-opacity:1;fill-rule:nonzero;stroke:none"
         id="path40" /><path
         d="M 3186.43,84.8594 V 75.9609 H 3161.1 V 10.1016 h -10.41 v 65.8593 h -25.45 v 8.8985 h 61.19"
         style="fill:#c4122e;fill-opacity:1;fill-rule:nonzero;stroke:none"
         id="path42" /><path
         d="m 3191.74,84.8594 h 16.31 l 22.34,-61.3086 h 0.42 l 21.64,61.3086 h 15.99 V 10.1016 h -10.7 v 61.3398 h -0.35 l -22.68,-61.3398 h -9.88 l -22.15,61.3398 h -0.49 V 10.1016 h -10.45 v 74.7578"
         style="fill:#c4122e;fill-opacity:1;fill-rule:nonzero;stroke:none"
         id="path44" /></g></g></svg>
