<?xml version="1.0" encoding="UTF-8" standalone="no"?>
<svg
   xmlns:dc="http://purl.org/dc/elements/1.1/"
   xmlns:cc="http://creativecommons.org/ns#"
   xmlns:rdf="http://www.w3.org/1999/02/22-rdf-syntax-ns#"
   xmlns:svg="http://www.w3.org/2000/svg"
   xmlns="http://www.w3.org/2000/svg"
   xmlns:sodipodi="http://sodipodi.sourceforge.net/DTD/sodipodi-0.dtd"
   xmlns:inkscape="http://www.inkscape.org/namespaces/inkscape"
   version="1.1"
   id="svg2"
   xml:space="preserve"
   width="245.33333"
   height="245.33333"
   viewBox="0 0 245.33333 245.33333"
   sodipodi:docname="ibm-watson.eps"><metadata
     id="metadata8"><rdf:RDF><cc:Work
         rdf:about=""><dc:format>image/svg+xml</dc:format><dc:type
           rdf:resource="http://purl.org/dc/dcmitype/StillImage" /></cc:Work></rdf:RDF></metadata><defs
     id="defs6" /><sodipodi:namedview
     pagecolor="#ffffff"
     bordercolor="#666666"
     borderopacity="1"
     objecttolerance="10"
     gridtolerance="10"
     guidetolerance="10"
     inkscape:pageopacity="0"
     inkscape:pageshadow="2"
     inkscape:window-width="640"
     inkscape:window-height="480"
     id="namedview4" /><g
     id="g10"
     inkscape:groupmode="layer"
     inkscape:label="ink_ext_XXXXXX"
     transform="matrix(1.3333333,0,0,-1.3333333,0,245.33333)"><g
       id="g12"
       transform="scale(0.1)"><path
         d="m 1127.13,1342.13 c 10.71,-18.61 18.71,-41.95 24.29,-69.22 38.5,4.65 77.44,6.48 116.63,5.19 l 0.13,0.01 c -43.9,26.59 -91.18,48.19 -141.05,64.02 z M 1010.12,920.5 c 11.72,0 22.27,-5.168 29.61,-13.414 22.91,2.16 45.75,3.965 68.43,5.391 6.08,39.066 11,77.238 14.55,113.923 -60.09,49.42 -124.565,92.03 -189.565,125.69 -24.95,-57.39 -49.356,-123.41 -72.055,-194.055 22.828,-15.371 39.594,-39.238 45.898,-67.148 22.774,3.386 45.649,6.484 68.532,9.261 6.976,12.176 19.859,20.352 34.6,20.352 z m 39.55,-48.219 C 1046.45,852.82 1029.96,838 1010.12,838 c -16.897,0 -31.354,10.734 -37.268,25.934 -21.305,-2.7 -42.555,-5.704 -63.692,-8.985 -5.469,-54.504 -50.172,-97.258 -105.055,-98.832 -13.945,-56.785 -26.339,-114.125 -36.679,-170.332 22.07,1.297 44.449,2.86 67.043,4.707 5.793,35.926 35.117,63.262 70.426,63.262 30.378,0 56.32,-20.234 66.668,-48.762 24.398,3.192 48.837,6.719 73.207,10.606 8.44,31.632 16.45,63.632 23.94,95.699 -16.23,9.629 -27.1,27.25 -27.1,47.398 0,28.309 21.46,51.633 49.08,54.797 4.13,21.074 7.99,42.039 11.55,62.813 -17.48,-1.094 -35.02,-2.442 -52.57,-4.024 z M 271.27,696.023 c 22.789,18.993 62.562,40.047 114.652,61.383 -34.746,93.52 -47.688,190.301 -30.43,282.824 -53.867,-94.902 -84.617,-204.535 -84.617,-321.335 0,-7.653 0.133,-15.278 0.395,-22.872 z m 191.238,89.922 c 66.91,22.852 145.758,45.121 230.812,64.602 -0.722,5.121 -1.093,10.355 -1.093,15.68 0,60.742 48.535,110 108.468,110.156 22.285,68.117 46.141,131.907 70.508,187.747 -74.508,-38.24 -146.113,-89.03 -211.086,-147.26 3.824,-7.45 5.988,-15.92 5.988,-24.897 0,-29.825 -23.843,-54 -53.25,-54 -9.488,0 -18.39,2.519 -26.105,6.929 C 539.563,894.453 497.527,840.594 462.508,785.945 Z m 676.572,128.239 c 17.92,0.847 35.72,1.437 53.34,1.757 1.58,12.977 6.01,25.047 12.65,35.543 -17.29,17.411 -35.2,34.239 -53.59,50.436 -3.37,-28.51 -7.54,-57.842 -12.4,-87.736 z m 220.59,-4.637 c 36.76,-3.848 71.82,-9.434 104.61,-16.992 21.93,101.925 6.68,194.685 -59.87,259.725 -76.58,58.53 -160.89,84.7 -247.45,86.16 6.13,-50.24 5.88,-110.38 0.54,-176.58 29.2,-24.7 57.42,-50.9 84.29,-78.337 10.39,4.688 21.89,7.297 33.98,7.297 45,0 81.74,-36.019 83.9,-81.273 z m 167.77,-35.074 c 14.68,-5.141 28.63,-10.856 41.94,-17.067 -7.52,34.684 -17.79,68.336 -30.59,100.731 -1.23,-27.211 -5.09,-55.199 -11.35,-83.664 z m 50.29,-63.844 c -19.12,9.312 -39.24,17.586 -60.28,24.848 -9.12,-31.309 -20.97,-63.016 -35.28,-94.723 35.42,17.133 68.11,35.836 97.34,56.211 -0.55,4.57 -1.14,9.121 -1.78,13.664 z m -123.43,43.152 c -32.35,7.739 -66.27,13.574 -101.35,17.739 -1.72,-4.051 -3.73,-7.946 -6.02,-11.645 25.11,-34.348 47.87,-69.852 67.73,-106.184 16.46,33.661 29.83,67.219 39.64,100.09 z m -258.67,25.871 c -20.75,-0.144 -41.69,-0.73 -62.74,-1.695 -4.05,-22.727 -8.48,-45.711 -13.25,-68.836 19.43,-8.586 32.97,-27.93 32.97,-50.426 0,-30.468 -24.84,-55.164 -55.49,-55.164 l -1.26,0.016 c -6.78,-27.781 -13.96,-55.52 -21.47,-83.027 109.06,18.75 215.79,44.785 310.43,79.339 -20.36,43.942 -45.6,86.618 -74.63,127.446 -10.51,-4.805 -22.15,-7.485 -34.42,-7.485 -37.6,0 -69.43,25.157 -80.14,59.832 z M 704.871,814.629 C 603.867,790.473 511.898,762.184 438.207,734.555 c 19.641,-52.489 45.449,-103.582 76.5,-151.754 56.242,-2.352 119.297,-2.528 186.352,-0.149 11.316,62.707 25.304,127.098 41.265,190.793 -15.711,10.215 -28.656,24.41 -37.453,41.184 z M 394.043,717.156 c -57.594,-23.84 -99.586,-46.398 -119.832,-64.484 1.012,-10.039 2.258,-20.012 3.723,-29.914 13.421,-8.68 36.699,-16.266 67.968,-22.504 12.692,39.258 28.86,78.387 48.141,116.902 z M 972.156,551.617 c -9.914,-29.418 -36.285,-50.457 -67.261,-50.457 -26.04,0 -48.813,14.863 -61.309,37.074 -28.887,-2.355 -57.418,-4.25 -85.395,-5.703 -10.199,-62.758 -17.558,-123.371 -21.363,-179.386 43.567,-30.739 93.777,-61.262 147.129,-87.68 17.176,6.383 34.258,13.473 51.203,21.219 33.02,78.711 65.46,172.953 94.09,272.82 -19.03,-2.84 -38.078,-5.465 -57.094,-7.887 z m -600.515,44.078 c 29.988,-4.695 65.32,-8.382 104.898,-10.886 -24.633,35.968 -46.406,73.336 -64.707,111.562 -16.664,-34.016 -30.203,-67.781 -40.191,-100.676 z m 1212.139,145.11 c -38.12,-25.883 -81.86,-49.032 -129.73,-69.621 36.29,-88.75 54.21,-180.696 46.74,-271.352 53.06,94.383 83.35,203.191 83.35,319.063 0,7.332 -0.12,14.632 -0.36,21.91 z M 1339.86,628.977 c -88,-27.918 -184.09,-49.274 -281.42,-64.946 -27.51,-94.113 -58.452,-183.863 -90.088,-261.269 51.408,26.328 101.278,58.453 148.388,94.785 -3.52,9.73 -5.45,20.219 -5.45,31.156 0,50.742 41.33,91.875 92.3,91.875 14.13,0 27.53,-3.168 39.5,-8.82 35.53,37.414 68.05,76.844 96.77,117.219 z m -647.747,-99.09 c -49.468,-1.407 -96.578,-1.434 -140.133,-0.196 10.821,-14.203 22.114,-28.07 33.852,-41.554 7.016,3.929 15.188,6.187 23.91,6.187 26.098,0 47.254,-20.148 47.254,-45 0,-9.527 -3.113,-18.359 -8.418,-25.636 8.856,-8.122 17.891,-16.04 27.094,-23.731 3.769,41.445 9.34,85.063 16.441,129.93 z m -175.785,1.121 c -62.5,2.89 -116.125,8.527 -156.89,16.371 -13.665,-68.723 -9.715,-131.926 16.406,-183.289 8.445,-13 17.351,-25.672 26.679,-38.016 82.801,-67.625 175.032,-97.695 269.668,-99.504 -3.3,43.508 -2.664,93.368 1.336,147.512 -5.582,4.457 -10.984,8.852 -16.191,13.172 -8.703,7.219 -17.297,14.605 -25.773,22.148 -6.528,-3.238 -13.946,-5.078 -21.821,-5.078 -26.09,0 -47.246,20.149 -47.246,45 0,7.844 2.109,15.223 5.817,21.641 -18.161,19.332 -35.536,39.383 -51.985,60.043 z m -183.902,22.398 c -19.672,5.098 -34.781,10.883 -44.59,17.25 7.582,-32.562 17.605,-64.191 29.867,-94.687 3.274,25.695 8.215,51.554 14.723,77.437 z M 928.676,213.051 C 896.965,147.395 865.684,97.4141 837.543,70.9766 c 29.41,-4.0157 59.445,-6.0899 89.965,-6.0899 110.442,0 214.492,27.1719 305.822,75.1483 -93.84,-9.043 -202.63,24.031 -304.654,73.016 z M 804.859,76.2852 c 28.207,17.5937 60.168,63.5668 92.762,128.3128 -51.707,-16.731 -104.496,-27.473 -157.531,-31.02 5.137,-35.945 13.695,-66.023 26.051,-88.785 12.761,-3.211 25.672,-6.0547 38.718,-8.5078 z M 1127.35,1086.56 c 3.17,55.96 2.58,107.23 -2.61,151.3 -56.16,-2.92 -112.98,-15.73 -168.97,-36.4 l -0.551,-1.15 c 58.811,-31.57 116.951,-69.98 172.131,-113.75 z m -7.19,181.93 c -6.28,34.07 -16.02,62.51 -29.57,84.08 -6.54,1.66 -13.11,3.23 -19.72,4.7 -31.55,-15.61 -66.17,-61.54 -100.87,-127.63 48.84,17.42 99.05,30.6 150.16,38.85 z M 735.344,327.699 c -1.719,-35.051 -1.91,-68.015 -0.422,-98.324 38.637,4.125 77.41,12.559 115.863,24.684 -41.289,23.593 -80.332,48.816 -115.441,73.64 z M 700.605,105 c -9.523,18.32 -16.664,41.125 -21.609,67.754 -51.5,2.098 -102.93,11.402 -153.519,29.035 C 578.066,161.164 637.023,128.324 700.605,105 Z m 200.204,1122.45 c 35.011,69.56 70.148,120 102.351,141.16 -24.82,2.84 -50.066,4.3 -75.652,4.3 -112.004,0 -217.442,-27.96 -309.703,-77.21 l 0.566,0.05 c 87.125,1.82 184.734,-23.24 282.438,-68.3 z m -476.407,-88.29 c -41.769,-114.61 -37.789,-242.746 0.422,-365.48 39.235,66.562 87.598,130.492 143.192,189.16 -5.321,8.406 -8.411,18.406 -8.411,29.133 0,29.827 23.844,53.997 53.25,53.997 11.633,0 22.395,-3.78 31.153,-10.2 66.699,58.18 140.922,108.82 220.226,148.59 -156.265,65.23 -307.632,74.26 -400.035,-2.55 l -0.304,0.21 c -13.793,-13.69 -26.965,-28 -39.493,-42.86 z M 964.703,229.859 c 173.127,-66.707 360.077,-75 455.407,92.579 l 0.05,0.007 c 31.02,99.473 26.05,200.594 -4.29,297.559 -35.82,-55.27 -78.31,-108.941 -125.93,-158.797 3.84,-10.105 5.95,-21.059 5.95,-32.504 0,-50.742 -41.33,-91.875 -92.3,-91.875 -14.9,0 -28.98,3.524 -41.45,9.766 -61.66,-47.047 -128.19,-86.996 -197.437,-116.735 z M 928.637,4.88672 c 394.753,0 714.753,317.65228 714.753,709.50028 0,391.843 -320,709.503 -714.753,709.503 -394.754,0 -714.758,-317.66 -714.758,-709.503 0,-391.848 320.004,-709.50028 714.758,-709.50028"
         style="fill:#100f0e;fill-opacity:1;fill-rule:evenodd;stroke:none"
         id="path14" /><path
         d="m 1127.13,1342.13 c 10.71,-18.61 18.71,-41.95 24.29,-69.22 38.5,4.65 77.44,6.48 116.63,5.19 l 0.13,0.01 c -43.9,26.59 -91.18,48.19 -141.05,64.02 z M 1010.12,920.5 c 11.72,0 22.27,-5.168 29.61,-13.414 22.91,2.16 45.75,3.965 68.43,5.391 6.08,39.066 11,77.238 14.55,113.923 -60.09,49.42 -124.565,92.03 -189.565,125.69 -24.95,-57.39 -49.356,-123.41 -72.055,-194.055 22.828,-15.371 39.594,-39.238 45.898,-67.148 22.774,3.386 45.649,6.484 68.532,9.261 6.976,12.176 19.859,20.352 34.6,20.352 z m 39.55,-48.219 C 1046.45,852.82 1029.96,838 1010.12,838 c -16.897,0 -31.354,10.734 -37.268,25.934 -21.305,-2.7 -42.555,-5.704 -63.692,-8.985 -5.469,-54.504 -50.172,-97.258 -105.055,-98.832 -13.945,-56.785 -26.339,-114.125 -36.679,-170.332 22.07,1.297 44.449,2.86 67.043,4.707 5.793,35.926 35.117,63.262 70.426,63.262 30.378,0 56.32,-20.234 66.668,-48.762 24.398,3.192 48.837,6.719 73.207,10.606 8.44,31.632 16.45,63.632 23.94,95.699 -16.23,9.629 -27.1,27.25 -27.1,47.398 0,28.309 21.46,51.633 49.08,54.797 4.13,21.074 7.99,42.039 11.55,62.813 -17.48,-1.094 -35.02,-2.442 -52.57,-4.024 z M 271.27,696.023 c 22.789,18.993 62.562,40.047 114.652,61.383 -34.746,93.52 -47.688,190.301 -30.43,282.824 -53.867,-94.902 -84.617,-204.535 -84.617,-321.335 0,-7.653 0.133,-15.278 0.395,-22.872 z m 191.238,89.922 c 66.91,22.852 145.758,45.121 230.812,64.602 -0.722,5.121 -1.093,10.355 -1.093,15.68 0,60.742 48.535,110 108.468,110.156 22.285,68.117 46.141,131.907 70.508,187.747 -74.508,-38.24 -146.113,-89.03 -211.086,-147.26 3.824,-7.45 5.988,-15.92 5.988,-24.897 0,-29.825 -23.843,-54 -53.25,-54 -9.488,0 -18.39,2.519 -26.105,6.929 C 539.563,894.453 497.527,840.594 462.508,785.945 Z m 676.572,128.239 c 17.92,0.847 35.72,1.437 53.34,1.757 1.58,12.977 6.01,25.047 12.65,35.543 -17.29,17.411 -35.2,34.239 -53.59,50.436 -3.37,-28.51 -7.54,-57.842 -12.4,-87.736 z m 220.59,-4.637 c 36.76,-3.848 71.82,-9.434 104.61,-16.992 21.93,101.925 6.68,194.685 -59.87,259.725 -76.58,58.53 -160.89,84.7 -247.45,86.16 6.13,-50.24 5.88,-110.38 0.54,-176.58 29.2,-24.7 57.42,-50.9 84.29,-78.337 10.39,4.688 21.89,7.297 33.98,7.297 45,0 81.74,-36.019 83.9,-81.273 z m 167.77,-35.074 c 14.68,-5.141 28.63,-10.856 41.94,-17.067 -7.52,34.684 -17.79,68.336 -30.59,100.731 -1.23,-27.211 -5.09,-55.199 -11.35,-83.664 z m 50.29,-63.844 c -19.12,9.312 -39.24,17.586 -60.28,24.848 -9.12,-31.309 -20.97,-63.016 -35.28,-94.723 35.42,17.133 68.11,35.836 97.34,56.211 -0.55,4.57 -1.14,9.121 -1.78,13.664 z m -123.43,43.152 c -32.35,7.739 -66.27,13.574 -101.35,17.739 -1.72,-4.051 -3.73,-7.946 -6.02,-11.645 25.11,-34.348 47.87,-69.852 67.73,-106.184 16.46,33.661 29.83,67.219 39.64,100.09 z m -258.67,25.871 c -20.75,-0.144 -41.69,-0.73 -62.74,-1.695 -4.05,-22.727 -8.48,-45.711 -13.25,-68.836 19.43,-8.586 32.97,-27.93 32.97,-50.426 0,-30.468 -24.84,-55.164 -55.49,-55.164 l -1.26,0.016 c -6.78,-27.781 -13.96,-55.52 -21.47,-83.027 109.06,18.75 215.79,44.785 310.43,79.339 -20.36,43.942 -45.6,86.618 -74.63,127.446 -10.51,-4.805 -22.15,-7.485 -34.42,-7.485 -37.6,0 -69.43,25.157 -80.14,59.832 z M 704.871,814.629 C 603.867,790.473 511.898,762.184 438.207,734.555 c 19.641,-52.489 45.449,-103.582 76.5,-151.754 56.242,-2.352 119.297,-2.528 186.352,-0.149 11.316,62.707 25.304,127.098 41.265,190.793 -15.711,10.215 -28.656,24.41 -37.453,41.184 z M 394.043,717.156 c -57.594,-23.84 -99.586,-46.398 -119.832,-64.484 1.012,-10.039 2.258,-20.012 3.723,-29.914 13.421,-8.68 36.699,-16.266 67.968,-22.504 12.692,39.258 28.86,78.387 48.141,116.902 z M 972.156,551.617 c -9.914,-29.418 -36.285,-50.457 -67.261,-50.457 -26.04,0 -48.813,14.863 -61.309,37.074 -28.887,-2.355 -57.418,-4.25 -85.395,-5.703 -10.199,-62.758 -17.558,-123.371 -21.363,-179.386 43.567,-30.739 93.777,-61.262 147.129,-87.68 17.176,6.383 34.258,13.473 51.203,21.219 33.02,78.711 65.46,172.953 94.09,272.82 -19.03,-2.84 -38.078,-5.465 -57.094,-7.887 z m -600.515,44.078 c 29.988,-4.695 65.32,-8.382 104.898,-10.886 -24.633,35.968 -46.406,73.336 -64.707,111.562 -16.664,-34.016 -30.203,-67.781 -40.191,-100.676 z m 1212.139,145.11 c -38.12,-25.883 -81.86,-49.032 -129.73,-69.621 36.29,-88.75 54.21,-180.696 46.74,-271.352 53.06,94.383 83.35,203.191 83.35,319.063 0,7.332 -0.12,14.632 -0.36,21.91 z M 1339.86,628.977 c -88,-27.918 -184.09,-49.274 -281.42,-64.946 -27.51,-94.113 -58.452,-183.863 -90.088,-261.269 51.408,26.328 101.278,58.453 148.388,94.785 -3.52,9.73 -5.45,20.219 -5.45,31.156 0,50.742 41.33,91.875 92.3,91.875 14.13,0 27.53,-3.168 39.5,-8.82 35.53,37.414 68.05,76.844 96.77,117.219 z m -647.747,-99.09 c -49.468,-1.407 -96.578,-1.434 -140.133,-0.196 10.821,-14.203 22.114,-28.07 33.852,-41.554 7.016,3.929 15.188,6.187 23.91,6.187 26.098,0 47.254,-20.148 47.254,-45 0,-9.527 -3.113,-18.359 -8.418,-25.636 8.856,-8.122 17.891,-16.04 27.094,-23.731 3.769,41.445 9.34,85.063 16.441,129.93 z m -175.785,1.121 c -62.5,2.89 -116.125,8.527 -156.89,16.371 -13.665,-68.723 -9.715,-131.926 16.406,-183.289 8.445,-13 17.351,-25.672 26.679,-38.016 82.801,-67.625 175.032,-97.695 269.668,-99.504 -3.3,43.508 -2.664,93.368 1.336,147.512 -5.582,4.457 -10.984,8.852 -16.191,13.172 -8.703,7.219 -17.297,14.605 -25.773,22.148 -6.528,-3.238 -13.946,-5.078 -21.821,-5.078 -26.09,0 -47.246,20.149 -47.246,45 0,7.844 2.109,15.223 5.817,21.641 -18.161,19.332 -35.536,39.383 -51.985,60.043 z m -183.902,22.398 c -19.672,5.098 -34.781,10.883 -44.59,17.25 7.582,-32.562 17.605,-64.191 29.867,-94.687 3.274,25.695 8.215,51.554 14.723,77.437 z M 928.676,213.051 C 896.965,147.395 865.684,97.4141 837.543,70.9766 c 29.41,-4.0157 59.445,-6.0899 89.965,-6.0899 110.442,0 214.492,27.1719 305.822,75.1483 -93.84,-9.043 -202.63,24.031 -304.654,73.016 z M 804.859,76.2852 c 28.207,17.5937 60.168,63.5668 92.762,128.3128 -51.707,-16.731 -104.496,-27.473 -157.531,-31.02 5.137,-35.945 13.695,-66.023 26.051,-88.785 12.761,-3.211 25.672,-6.0547 38.718,-8.5078 z M 1127.35,1086.56 c 3.17,55.96 2.58,107.23 -2.61,151.3 -56.16,-2.92 -112.98,-15.73 -168.97,-36.4 l -0.551,-1.15 c 58.811,-31.57 116.951,-69.98 172.131,-113.75 z m -7.19,181.93 c -6.28,34.07 -16.02,62.51 -29.57,84.08 -6.54,1.66 -13.11,3.23 -19.72,4.7 -31.55,-15.61 -66.17,-61.54 -100.87,-127.63 48.84,17.42 99.05,30.6 150.16,38.85 z M 735.344,327.699 c -1.719,-35.051 -1.91,-68.015 -0.422,-98.324 38.637,4.125 77.41,12.559 115.863,24.684 -41.289,23.593 -80.332,48.816 -115.441,73.64 z M 700.605,105 c -9.523,18.32 -16.664,41.125 -21.609,67.754 -51.5,2.098 -102.93,11.402 -153.519,29.035 C 578.066,161.164 637.023,128.324 700.605,105 Z m 200.204,1122.45 c 35.011,69.56 70.148,120 102.351,141.16 -24.82,2.84 -50.066,4.3 -75.652,4.3 -112.004,0 -217.442,-27.96 -309.703,-77.21 l 0.566,0.05 c 87.125,1.82 184.734,-23.24 282.438,-68.3 z m -476.407,-88.29 c -41.769,-114.61 -37.789,-242.746 0.422,-365.48 39.235,66.562 87.598,130.492 143.192,189.16 -5.321,8.406 -8.411,18.406 -8.411,29.133 0,29.827 23.844,53.997 53.25,53.997 11.633,0 22.395,-3.78 31.153,-10.2 66.699,58.18 140.922,108.82 220.226,148.59 -156.265,65.23 -307.632,74.26 -400.035,-2.55 l -0.304,0.21 c -13.793,-13.69 -26.965,-28 -39.493,-42.86 z M 964.703,229.859 c 173.127,-66.707 360.077,-75 455.407,92.579 l 0.05,0.007 c 31.02,99.473 26.05,200.594 -4.29,297.559 -35.82,-55.27 -78.31,-108.941 -125.93,-158.797 3.84,-10.105 5.95,-21.059 5.95,-32.504 0,-50.742 -41.33,-91.875 -92.3,-91.875 -14.9,0 -28.98,3.524 -41.45,9.766 -61.66,-47.047 -128.19,-86.996 -197.437,-116.735 z M 928.637,4.88672 c 394.753,0 714.753,317.65228 714.753,709.50028 0,391.843 -320,709.503 -714.753,709.503 -394.754,0 -714.758,-317.66 -714.758,-709.503 0,-391.848 320.004,-709.50028 714.758,-709.50028 z"
         style="fill:none;stroke:#231f20;stroke-width:5.0003;stroke-linecap:butt;stroke-linejoin:miter;stroke-miterlimit:2.61313;stroke-dasharray:none;stroke-opacity:1"
         id="path16" /><path
         d="m 12.1992,1374.14 0.0078,0.01 c 12.9024,20.65 40.3516,26.99 61.0039,14.08 L 253.297,1275.7 c 20.652,-12.9 26.988,-40.36 14.086,-61 l -0.004,-0.01 c -12.902,-20.65 -40.352,-26.99 -61.004,-14.08 L 26.2891,1313.14 c -20.65238,12.9 -26.992225,40.35 -14.0899,61"
         style="fill:#100f0e;fill-opacity:1;fill-rule:evenodd;stroke:none"
         id="path18" /><path
         d="m 424.207,1721.77 0.008,0.01 c 22.066,10.29 48.539,0.65 58.832,-21.42 l 89.746,-192.46 c 10.289,-22.07 0.656,-48.54 -21.41,-58.83 l -0.012,-0.01 c -22.066,-10.29 -48.539,-0.65 -58.832,21.42 l -89.746,192.46 c -10.289,22.07 -0.652,48.54 21.414,58.83"
         style="fill:#100f0e;fill-opacity:1;fill-rule:evenodd;stroke:none"
         id="path20" /><path
         d="m 924.289,1837.87 h 0.012 c 24.347,0 44.265,-19.92 44.265,-44.28 v -212.35 c 0,-24.35 -19.918,-44.27 -44.265,-44.27 h -0.012 c -24.348,0 -44.266,19.92 -44.266,44.27 v 212.35 c 0,24.36 19.918,44.28 44.266,44.28"
         style="fill:#100f0e;fill-opacity:1;fill-rule:evenodd;stroke:none"
         id="path22" /><path
         d="m 1423.41,1721.4 h 0.01 c 22.06,-10.29 31.7,-36.77 21.41,-58.84 l -89.74,-192.45 c -10.3,-22.07 -36.77,-31.71 -58.84,-21.42 h -0.01 c -22.06,10.29 -31.7,36.76 -21.41,58.84 l 89.75,192.45 c 10.29,22.07 36.76,31.71 58.83,21.42"
         style="fill:#100f0e;fill-opacity:1;fill-rule:evenodd;stroke:none"
         id="path24" /><path
         d="m 1824.91,1372.57 h 0.01 c 12.9,-20.65 6.56,-48.1 -14.09,-61.01 l -180.09,-112.53 c -20.65,-12.9 -48.1,-6.57 -61,14.08 l -0.01,0.01 c -12.9,20.65 -6.56,48.1 14.09,61.01 l 180.09,112.53 c 20.65,12.9 48.1,6.56 61,-14.09"
         style="fill:#100f0e;fill-opacity:1;fill-rule:evenodd;stroke:none"
         id="path26" /></g></g></svg>
