<?xml version="1.0" encoding="UTF-8" standalone="no"?>
<svg
   xmlns:dc="http://purl.org/dc/elements/1.1/"
   xmlns:cc="http://creativecommons.org/ns#"
   xmlns:rdf="http://www.w3.org/1999/02/22-rdf-syntax-ns#"
   xmlns:svg="http://www.w3.org/2000/svg"
   xmlns="http://www.w3.org/2000/svg"
   xmlns:sodipodi="http://sodipodi.sourceforge.net/DTD/sodipodi-0.dtd"
   xmlns:inkscape="http://www.inkscape.org/namespaces/inkscape"
   version="1.1"
   id="svg2"
   xml:space="preserve"
   width="414.54666"
   height="271.97333"
   viewBox="0 0 414.54666 271.97333"
   sodipodi:docname="sas-seeklogo.com.eps"><metadata
     id="metadata8"><rdf:RDF><cc:Work
         rdf:about=""><dc:format>image/svg+xml</dc:format><dc:type
           rdf:resource="http://purl.org/dc/dcmitype/StillImage" /></cc:Work></rdf:RDF></metadata><defs
     id="defs6" /><sodipodi:namedview
     pagecolor="#ffffff"
     bordercolor="#666666"
     borderopacity="1"
     objecttolerance="10"
     gridtolerance="10"
     guidetolerance="10"
     inkscape:pageopacity="0"
     inkscape:pageshadow="2"
     inkscape:window-width="640"
     inkscape:window-height="480"
     id="namedview4" /><g
     id="g10"
     inkscape:groupmode="layer"
     inkscape:label="ink_ext_XXXXXX"
     transform="matrix(1.3333333,0,0,-1.3333333,0,271.97333)"><g
       id="g12"
       transform="scale(0.1)"><path
         d="m 1218.52,1342.06 c 4.3,-117.57 99.24,-154.7 199.95,-154.7 76.29,0 179.89,18.55 179.89,119.1 0,102.15 -120.86,119.17 -243.17,148.56 -120.88,29.36 -243.17,72.68 -243.17,225.89 0,160.89 148.19,227.48 277.73,227.48 164.05,0 294.97,-55.74 305.02,-250.7 h -122.29 c -8.65,102.11 -92.07,134.62 -172.71,134.62 -73.38,0 -158.28,-21.7 -158.28,-102.15 0,-94.38 129.53,-109.84 243.24,-139.23 122.28,-29.43 243.17,-72.69 243.17,-227.42 0,-190.35 -165.49,-252.22 -316.56,-252.22 -166.97,0 -307.94,72.75 -315.15,270.77 h 122.33"
         style="fill:#110f0e;fill-opacity:1;fill-rule:nonzero;stroke:none"
         id="path14" /><path
         d="m 2450.19,1195.05 c -15.78,-6.19 -27.32,-7.72 -37.37,-7.72 -38.89,0 -38.89,27.83 -38.89,89.7 v 411.61 c 0,187.24 -145.27,219.75 -279.1,219.75 -165.53,0 -308,-69.63 -315.14,-267.69 h 122.28 c 5.76,117.53 82.04,151.65 185.65,151.65 77.72,0 165.43,-18.62 165.43,-133.1 0,-99.03 -115.03,-89.75 -250.35,-117.61 -126.6,-26.31 -251.79,-64.96 -251.79,-246 0,-159.4 110.82,-224.35 246.1,-224.35 103.53,0 194.21,38.68 261.85,123.76 0,-86.64 40.28,-123.76 103.63,-123.76 38.75,0 66.11,7.72 87.7,21.66 z m -198.52,173.28 c 0,-72.69 -66.22,-181 -227.41,-181 -74.79,0 -143.88,30.91 -143.88,117.57 0,97.5 69.09,128.42 149.65,143.92 82.01,15.49 174.18,17.01 221.64,54.14 v -134.63"
         style="fill:#110f0e;fill-opacity:1;fill-rule:nonzero;stroke:none"
         id="path16" /><path
         d="m 2563.81,1342.06 c 4.25,-117.57 99.21,-154.7 199.94,-154.7 76.2,0 179.84,18.55 179.84,119.1 0,102.15 -120.84,119.17 -243.19,148.56 -120.84,29.36 -243.2,72.68 -243.2,225.89 0,160.89 148.23,227.48 277.81,227.48 164.06,0 294.94,-55.74 305.03,-250.7 h -122.29 c -8.63,102.11 -92.16,134.62 -172.72,134.62 -73.38,0 -158.28,-21.7 -158.28,-102.15 0,-94.38 129.54,-109.84 243.19,-139.23 122.29,-29.43 243.19,-72.69 243.19,-227.42 0,-190.35 -165.54,-252.22 -316.56,-252.22 -166.92,0 -307.97,72.75 -315.15,270.77 h 122.39"
         style="fill:#110f0e;fill-opacity:1;fill-rule:nonzero;stroke:none"
         id="path18" /><path
         d="m 702.938,1671.04 -20.379,24.53 c -28.262,33.64 -74.317,33.49 -108.282,5.51 -34.179,-28.15 -44.218,-74.78 -16.035,-108.9 0.039,-0.03 3.379,-4.1 9.285,-11.24"
         style="fill:#537cc7;fill-opacity:1;fill-rule:nonzero;stroke:none"
         id="path20" /><path
         d="m 566.875,1581.7 c 64.758,-77.84 151.824,-182.6 151.824,-182.6 108.574,-131.72 60,-294.1 -87.215,-386.53 -129.707,-81.422 -367.863,-52.441 -449.863,81.25 63.574,-187.64 276.942,-310.289 512.766,-251.32 204.539,51.09 433.093,314.06 183.164,617.31 l -185.715,224.25"
         style="fill:#537cc7;fill-opacity:1;fill-rule:nonzero;stroke:none"
         id="path22" /><path
         d="m 587.004,1299.89 c -63.051,75.84 -140.063,168.38 -140.063,168.38 -108.523,131.72 -59.921,294.14 87.258,386.6 129.696,81.43 367.864,52.43 449.871,-81.32 -63.609,187.71 -276.922,310.29 -512.769,251.36 C 266.746,1973.82 38.1758,1710.95 288.145,1407.59 l 177.089,-213.87"
         style="fill:#537cc7;fill-opacity:1;fill-rule:nonzero;stroke:none"
         id="path24" /><path
         d="m 437.102,1226.52 42.214,-50.98 c 28.274,-33.64 74.278,-33.42 108.282,-5.41 34.148,28.13 44.218,74.71 16.047,108.93 -0.082,0.04 -16.641,19.99 -40.649,48.85"
         style="fill:#537cc7;fill-opacity:1;fill-rule:nonzero;stroke:none"
         id="path26" /><path
         d="m 3051.26,1095.13 v 16.94 h 11.21 c 5.76,0 11.89,-1.16 11.89,-8.02 0,-8.31 -6.16,-8.92 -13.2,-8.92 z m 0,-6.86 h 9.46 l 14.38,-23.7 h 9.28 l -15.45,24.02 c 7.97,0.95 14.15,5.23 14.15,15.02 0,10.74 -6.39,15.47 -19.31,15.47 h -20.71 v -54.51 h 8.2 z m 10.05,-43.63 c 25.69,0 47.82,19.93 47.82,47.29 0,27.15 -22.13,47.21 -47.82,47.21 -26.02,0 -48.12,-20.06 -48.12,-47.21 0,-27.36 22.1,-47.29 48.12,-47.29 m -38.55,47.29 c 0,22.42 16.84,39.27 38.55,39.27 21.34,0 38.24,-16.85 38.24,-39.27 0,-22.68 -16.9,-39.51 -38.24,-39.51 -21.71,0 -38.55,16.83 -38.55,39.51"
         style="fill:#110f0e;fill-opacity:1;fill-rule:nonzero;stroke:none"
         id="path28" /><path
         d="m 1042.87,1095.13 v 16.94 h 11.21 c 5.77,0 11.86,-1.16 11.86,-8.02 0,-8.31 -6.12,-8.92 -13.24,-8.92 z m 0,-6.86 h 9.47 l 14.37,-23.7 h 9.3 l -15.5,24.02 c 8.03,0.95 14.17,5.23 14.17,15.02 0,10.74 -6.37,15.47 -19.32,15.47 h -20.74 v -54.51 h 8.25 z m 10.04,-43.63 c 25.71,0 47.8,19.93 47.8,47.29 0,27.15 -22.09,47.21 -47.8,47.21 -26.03,0 -48.1,-20.06 -48.1,-47.21 0,-27.36 22.07,-47.29 48.1,-47.29 m -38.54,47.29 c 0,22.42 16.78,39.27 38.54,39.27 21.32,0 38.26,-16.85 38.26,-39.27 0,-22.68 -16.94,-39.51 -38.26,-39.51 -21.76,0 -38.54,16.83 -38.54,39.51"
         style="fill:#110f0e;fill-opacity:1;fill-rule:nonzero;stroke:none"
         id="path30" /></g></g></svg>
