<?xml version="1.0" encoding="utf-8"?>
<!-- Generator: Adobe Illustrator 21.0.0, SVG Export Plug-In . SVG Version: 6.00 Build 0)  -->
<svg version="1.1" id="Layer_1" xmlns="http://www.w3.org/2000/svg" xmlns:xlink="http://www.w3.org/1999/xlink" x="0px" y="0px"
	 viewBox="0 0 2500 359" style="enable-background:new 0 0 2500 359;" xml:space="preserve">
<style type="text/css">
	.st0{fill:#303035;}
</style>
<path class="st0" d="M148.9,172.5v-143L0,50.6v121.9H148.9z M162.9,172.5h195.7V0.2L162.9,28.3V172.5z M148.9,186.5H0v123.1
	l148.9,19.9V186.5z M162.9,186.5v145.3l195.7,27V186.5H162.9z"/>
<g>
	<path class="st0" d="M1837.8,233.4c0,17.6-5.9,32.8-18.8,42.2c-12.9,10.6-30.5,15.2-52.7,15.2c-8.2,0-17.6-1.2-27-3.5
		c-10.5-2.3-17.6-5.9-21.1-8.2v-29.3c5.9,5.9,14.1,10.5,24.6,14.1c10.5,3.5,18.7,5.9,28.1,5.9c28.1,0,41-10.5,41-32.8
		c0-9.4-3.5-16.4-9.4-23.4c-5.9-7-17.6-15.2-36.3-25.8c-17.6-10.6-30.5-19.9-37.5-28.1c-7-9.4-10.6-19.9-10.6-32.8
		c0-16.4,5.9-30.5,18.8-41c12.9-10.6,29.3-16.4,49.2-16.4c18.8,0,32.8,2.3,42.2,8.2v28.1c-11.7-9.4-25.8-12.9-43.4-12.9
		c-11.7,0-21.1,3.5-29.3,9.4c-7,5.9-11.7,14.1-11.7,23.4c0,7,1.2,12.9,3.5,17.6c2.3,4.7,5.9,8.2,11.7,12.9c5.9,4.7,14.1,9.4,27,16.4
		c18.8,10.5,32.8,21.1,39.8,30.5C1834.3,210,1837.8,221.7,1837.8,233.4L1837.8,233.4z M1991.3,217h-109c0,17.6,4.7,30.5,14.1,39.8
		c8.2,9.4,21.1,14.1,36.3,14.1c17.6,0,32.8-5.9,48.1-16.4V278c-12.9,9.4-31.6,15.2-53.9,15.2c-22.3,0-38.7-7-51.6-21.1
		c-11.7-14.1-18.7-34-18.7-58.6c0-15.2,3.5-29.3,9.4-41c5.9-12.9,14.1-22.3,25.8-29.3c10.5-7,22.3-10.5,36.3-10.5
		c19.9,0,35.2,7,46.9,19.9c11.7,12.9,16.4,31.6,16.4,53.9L1991.3,217L1991.3,217z M1966.7,195.9c0-14.1-3.5-25.8-10.5-32.8
		c-7-8.2-16.4-11.7-28.1-11.7c-11.7,0-21.1,4.7-29.3,12.9c-8.2,8.2-12.9,18.8-15.2,32.8h83.2V195.9z M2099.2,158.4
		c-4.7-3.5-10.5-4.7-18.7-4.7c-10.6,0-19.9,4.7-27,15.2c-7,10.5-10.5,23.4-10.5,39.8v78.5h-24.6V133.8h24.6v31.6h1.2
		c3.5-10.6,8.2-18.8,15.2-24.6c7-5.9,15.2-9.4,24.6-9.4c5.9,0,11.7,1.2,15.2,2.3L2099.2,158.4L2099.2,158.4z M2253.9,133.8
		l-60.9,153.5h-24.6l-58.6-153.5h27l38.7,111.3c2.3,5.9,3.5,12.9,4.7,21.1h1.2c1.2-7,2.3-14.1,4.7-21.1l41-112.5h27L2253.9,133.8
		L2253.9,133.8L2253.9,133.8z M2392.2,217h-107.8c0,17.6,4.7,30.5,14.1,39.8c8.2,9.4,21.1,14.1,36.3,14.1c17.6,0,32.8-5.9,48.1-16.4
		V278c-12.9,9.4-31.6,15.2-53.9,15.2c-22.3,0-38.7-7-51.6-21.1c-11.7-14.1-18.8-34-18.8-58.6c0-15.2,3.5-29.3,9.4-41
		c5.9-12.9,14.1-22.3,25.8-29.3c10.5-7,22.3-10.5,36.3-10.5c19.9,0,35.2,7,46.9,19.9c11.7,12.9,16.4,31.6,16.4,53.9V217L2392.2,217
		L2392.2,217L2392.2,217L2392.2,217z M2367.6,195.9c0-14.1-3.5-25.8-10.5-32.8c-7-8.2-16.4-11.7-28.1-11.7
		c-11.7,0-21.1,4.7-29.3,12.9c-8.2,8.2-12.9,18.8-15.2,32.8h83.2V195.9z M2500,158.4c-4.7-3.5-10.5-4.7-18.8-4.7
		c-10.5,0-19.9,4.7-27,15.2c-7,10.5-10.6,23.4-10.6,39.8v78.5h-24.6V133.8h24.6v31.6h1.2c3.5-10.6,8.2-18.8,15.2-24.6
		c7-5.9,15.2-9.4,24.6-9.4c5.9,0,11.7,1.2,15.2,2.3L2500,158.4L2500,158.4L2500,158.4z"/>
</g>
<g>
	<path class="st0" d="M745.4,72.8l-60.9,214.5h-29.3l-44.5-157.1c-1.2-5.9-2.3-12.9-3.5-22.3H606l-3.5,21.1l-44.5,157.1h-29.3
		L466.5,72.8h27l45.7,165.3c2.3,7,3.5,14.1,3.5,21.1h1.2c0-5.9,2.3-12.9,4.7-21.1l48.1-165.3h24.6l45.7,166.4
		c1.2,5.9,2.3,12.9,3.5,19.9c0-4.7,2.3-11.7,3.5-21.1l44.5-165.3L745.4,72.8L745.4,72.8z M794.7,83.4c0,4.7-1.2,8.2-4.7,11.7
		c-3.5,3.5-7,4.7-11.7,4.7c-4.7,0-8.2-1.2-11.7-4.7c-3.5-3.5-4.7-7-4.7-11.7c0-4.7,1.2-8.2,4.7-11.7c3.5-3.5,7-4.7,11.7-4.7
		c4.7,0,8.2,1.2,11.7,4.7C792.3,75.2,794.7,78.7,794.7,83.4z M790,287.3h-24.6V133.8H790V287.3z M954.1,287.3h-24.6v-87.9
		c0-32.8-11.7-49.2-35.2-49.2c-11.7,0-22.3,4.7-30.5,14.1c-8.2,9.4-11.7,21.1-11.7,35.2v87.9h-24.6V133.8h24.6v25.8h1.2
		c11.7-19.9,28.1-29.3,50.4-29.3c16.4,0,29.3,5.9,38.7,16.4c9.4,10.5,12.9,27,12.9,46.9v93.8H954.1L954.1,287.3z M1125.2,287.3
		h-24.6v-25.8h-1.2c-11.7,19.9-29.3,29.3-52.7,29.3c-19.9,0-35.2-7-46.9-21.1c-11.7-14.1-17.6-32.8-17.6-56.3
		c0-25.8,5.9-45.7,18.8-60.9c12.9-15.2,29.3-23.4,51.6-23.4c21.1,0,36.3,8.2,45.7,24.6h1.2V59.9h24.6v227.4L1125.2,287.3z
		 M1100.6,218.2v-22.3c0-12.9-4.7-23.4-12.9-31.6c-8.2-8.2-18.8-12.9-30.5-12.9c-15.2,0-27,5.9-35.2,16.4
		c-8.2,10.5-12.9,25.8-12.9,45.7c0,17.6,3.5,31.6,11.7,42.2c8.2,10.5,18.7,15.2,32.8,15.2c14.1,0,24.6-4.7,32.8-15.2
		C1095.9,246.3,1100.6,233.4,1100.6,218.2L1100.6,218.2z M1306.8,210c0,24.6-7,44.5-21.1,58.6c-14.1,15.2-32.8,22.3-56.3,22.3
		c-22.3,0-41-7-53.9-21.1c-14.1-14.1-19.9-34-19.9-57.4c0-25.8,7-45.7,21.1-59.8c14.1-15.2,32.8-22.3,57.4-22.3
		c22.3,0,41,7,53.9,21.1C1299.8,165.4,1306.8,185.4,1306.8,210L1306.8,210z M1281.1,211.1c0-18.7-4.7-34-12.9-44.5
		c-8.2-10.5-21.1-15.2-36.3-15.2c-15.2,0-28.1,5.9-37.5,15.2c-9.4,10.6-14.1,25.8-14.1,44.5c0,18.8,4.7,32.8,14.1,43.4
		c9.4,10.6,22.3,15.2,37.5,15.2c16.4,0,28.1-4.7,36.3-15.2C1277.5,245.1,1281.1,229.9,1281.1,211.1L1281.1,211.1z M1530.7,133.8
		L1485,287.3h-25.8l-31.6-110.2c-1.2-3.5-2.3-8.2-2.3-14.1h-1.2c0,3.5-1.2,8.2-3.5,14.1l-34,110.2h-24.6l-46.9-153.5h25.8l31.6,116
		c1.2,3.5,1.2,8.2,2.3,14.1h1.2c0-3.5,1.2-8.2,2.3-14.1l35.2-114.9h22.3l31.6,116c1.2,3.5,1.2,8.2,2.3,14.1h1.2
		c0-4.7,1.2-9.4,2.3-14.1l31.6-116h25.8L1530.7,133.8L1530.7,133.8L1530.7,133.8z M1635,246.3c0,12.9-4.7,24.6-15.2,32.8
		c-10.6,8.2-23.4,12.9-41,12.9c-14.1,0-27-3.5-37.5-9.4v-27c11.7,9.4,25.8,15.2,39.9,15.2c19.9,0,29.3-7,29.3-21.1
		c0-5.9-2.3-10.5-5.9-14.1c-3.5-3.5-12.9-8.2-25.8-15.2c-14.1-5.9-23.4-11.7-29.3-18.8c-5.9-7-8.2-15.2-8.2-27
		c0-12.9,4.7-23.4,15.2-31.6c10.5-8.2,23.4-12.9,38.7-12.9c11.7,0,23.4,2.3,32.8,7v24.6c-10.5-7-21.1-10.5-35.2-10.5
		c-8.2,0-14.1,2.3-19.9,5.9c-4.7,3.5-7,9.4-7,15.2c0,7,2.3,11.7,5.9,15.2c3.5,3.5,11.7,8.2,23.4,12.9c14.1,5.9,24.6,12.9,30.5,19.9
		C1632.7,227.6,1635,235.8,1635,246.3L1635,246.3z"/>
</g>
</svg>
